<?xml version="1.0" encoding="utf-8"?>
<svg version="1.1" xmlns="http://www.w3.org/2000/svg" xmlns:xlink="http://www.w3.org/1999/xlink"
	 width="400" height="130" viewBox="180 408 400 115">
<g>
	<path fill-rule="evenodd" clip-rule="evenodd" fill="#2E9E48" d="M185.354,497.592c1.114-0.07,2.169-0.166,3.226-0.195
		c3.789-0.107,7.548-0.487,11.27-1.201c1.985-0.382,3.958-0.838,5.942-1.229c0.587-0.117,0.885-0.431,1.13-0.964
		c3.787-8.265,8.587-15.889,14.594-22.722c3.526-4.01,7.455-7.578,12.043-10.367c3.323-2.018,6.865-3.48,10.701-4.173
		c3.917-0.707,7.799-0.584,11.613,0.636c4.51,1.444,7.733,4.406,9.957,8.523c0.5,0.927,0.943,1.884,1.462,2.926
		c0.168-0.243,0.301-0.411,0.409-0.596c1.46-2.454,2.97-4.881,4.355-7.378c1.127-2.029,2.089-4.15,3.147-6.218
		c4.198-8.209,9.063-16.012,14.552-23.413c3.961-5.339,8.555-10.075,14.011-13.93c3.024-2.133,6.247-3.905,9.702-5.241
		c0.114-0.044,0.239-0.057,0.465-0.107c-2.089,1.616-4.099,3.134-6.065,4.704c-2.784,2.226-5.371,4.66-7.657,7.402
		c-3.324,3.986-5.472,8.516-6.43,13.626c-0.465,2.477-0.992,4.942-1.598,7.388c-0.731,2.947-2.028,5.616-4.277,7.741
		c-1.435,1.356-3.087,2.408-4.792,3.382c-1.21,0.692-2.409,1.408-3.639,2.062c-2.257,1.199-3.978,2.972-5.463,5.006
		c-1.948,2.665-3.549,5.535-4.941,8.519c-0.303,0.65-0.653,0.842-1.347,0.823c-1.827-0.049-3.667-0.128-5.482,0.03
		c-2.772,0.242-5.548,0.563-8.288,1.049c-7.174,1.266-13.798,4.074-20.111,7.611c-4.083,2.288-8.044,4.792-12.067,7.187
		c-1.597,0.951-3.215,1.87-4.821,2.807c-0.166,0.097-0.322,0.212-0.428,0.46c0.198-0.045,0.401-0.069,0.591-0.135
		c4.437-1.521,8.677-3.496,12.893-5.534c4.157-2.009,8.398-3.819,12.81-5.202c3.456-1.085,6.975-1.906,10.553-2.473
		c3.31-0.528,6.632-0.965,9.992-1.026c1.692-0.032,3.386-0.169,5.075-0.113c4.351,0.145,8.673,0.575,12.924,1.567
		c0.258,0.061,0.52,0.113,0.771,0.197c0.847,0.285,1.208,0.974,0.855,1.792c-0.328,0.762-0.732,1.492-1.146,2.209
		c-2.468,4.289-4.953,8.566-7.423,12.854c-0.547,0.949-1.051,1.921-1.593,2.873c-0.295,0.518-0.603,1.033-0.958,1.513
		c-0.695,0.935-1.593,1.308-2.785,1.052c-3.181-0.684-6.404-1.138-9.646-1.358c-2.946-0.199-5.904-0.267-8.859-0.082
		c-3.512,0.222-7.036,0.313-10.531,0.688c-3.854,0.416-7.685,1.064-11.52,1.65c-3.542,0.542-7.07,1.159-10.611,1.693
		c-2.359,0.357-4.727,0.679-7.101,0.923c-3.009,0.312-6.025,0.321-9.051,0.126c-1.862-0.121-3.712-0.233-5.521-0.688
		c-3.278-0.825-6.38-2.063-9.096-4.127c-0.473-0.358-0.907-0.779-1.311-1.22C185.527,498.58,185.237,498.193,185.354,497.592z"/>
	<g>
		<g>
			<path fill-rule="evenodd" clip-rule="evenodd" fill="#057068" d="M404.447,469.131c0-5.354,0-10.515,0-15.789
				c3.632,0,10.721,0,10.721,0v45.173c0,0-5.701,0.034-8.49-0.038c-0.396-0.011-0.855-0.463-1.15-0.824
				c-0.475-0.579-0.837-1.251-1.291-1.949c-0.536,0.359-0.988,0.602-1.368,0.926c-2.645,2.245-5.759,2.414-8.954,1.92
				c-2.646-0.409-4.576-2.004-5.453-4.496c-0.697-1.985-1.229-4.104-1.361-6.191c-0.219-3.398-0.111-6.82-0.021-10.228
				c0.035-1.352,0.283-2.72,0.619-4.031c1-3.898,3.24-5.727,7.26-6.017c2.665-0.188,5.27,0.135,7.791,1.052
				C403.206,468.806,403.687,468.913,404.447,469.131z M404.453,482.698c-0.003,0-0.006,0-0.009,0c0-1.702-0.036-3.409,0.013-5.109
				c0.035-1.222-0.457-1.828-1.67-2.141c-3.292-0.853-4.74-0.009-4.98,3.383c-0.188,2.625-0.18,5.286,0,7.911
				c0.198,2.925,1.719,3.901,4.52,3.229c1.59-0.382,2.076-0.956,2.118-2.675C404.482,485.764,404.453,484.229,404.453,482.698z"/>
			<path fill-rule="evenodd" clip-rule="evenodd" fill="#057068" d="M434.195,514.019c0-15.456,0-30.541,0-45.947
				c2.822-0.088,5.605-0.076,8.386-0.007c0.407,0.012,0.882,0.418,1.188,0.766c0.491,0.56,0.869,1.22,1.1,1.557
				c2.227-0.928,4.166-2.115,6.26-2.531c4.377-0.871,8.475,0.838,10.064,5.693c0.341,1.047,0.586,2.141,0.738,3.229
				c0.711,5.096,0.805,10.209-0.328,15.242c-0.916,4.069-3.273,6.872-8.555,6.771c-2.316-0.045-4.596-0.15-6.766-1.071
				c-0.366-0.157-0.785-0.184-1.404-0.323c0,4.403,0,8.636,0,13.042C441.311,511.636,437.863,512.79,434.195,514.019z
				 M444.874,484.065c-0.003,0-0.003,0-0.006,0c0,1.617-0.04,3.231,0.022,4.845c0.022,0.548,0.139,1.309,0.504,1.583
				c1.233,0.925,2.752,0.862,4.166,0.595c1.137-0.213,1.609-1.246,1.647-2.319c0.112-3.12,0.161-6.243,0.187-9.367
				c0.004-0.492-0.179-1.009-0.367-1.476c-0.568-1.408-1.589-1.868-3.328-1.561c-2.128,0.375-2.752,0.907-2.813,2.603
				C444.826,480.666,444.874,482.368,444.874,484.065z"/>
			<path fill-rule="evenodd" clip-rule="evenodd" fill="#057068" d="M524.086,487.196c-0.079,2.686,0.74,3.672,3.33,3.8
				c2.041,0.104,4.098,0.072,6.14-0.04c1.954-0.11,3.896-0.4,5.957-0.625c0,2.273,0,4.541,0,7.119
				c-2.288,0.382-4.522,0.952-6.783,1.083c-3.571,0.206-7.164,0.213-10.743,0.135c-4.026-0.09-6.645-2.006-7.698-5.889
				c-1.704-6.281-1.722-12.642-0.063-18.95c0.817-3.112,3.038-5.001,6.128-5.478c4.73-0.729,9.512-0.799,14.232,0.189
				c2.781,0.581,4.533,2.402,5.014,5.172c0.373,2.167,0.603,4.403,0.52,6.596c-0.157,4.107-2.54,6.389-6.663,6.587
				c-2.554,0.121-5.117,0.056-7.675,0.104C525.209,487.008,524.637,487.129,524.086,487.196z M523.83,480.376
				c1.277,0,2.191,0.036,3.101-0.007c1.915-0.09,2.663-0.983,2.518-2.951c-0.127-1.729-1.069-2.475-2.913-2.302
				c-1.418,0.133-2.162,0.689-2.473,2.106C523.869,478.101,523.918,479.033,523.83,480.376z"/>
			<path fill-rule="evenodd" clip-rule="evenodd" fill="#057068" d="M554.604,498.405c-3.598,0-6.976,0-10.352,0
				c-0.452-1.905-0.61-25.499-0.19-30.222c3.011,0,6.041,0,9.322,0c0.407,0.995,0.877,2.143,1.495,3.649
				c2.295-3.299,5.156-4.835,9.137-3.836c0,3.362,0,6.649,0,10.281c-1.34,0-2.668-0.027-3.994,0.005
				c-4.472,0.103-5.415,1.055-5.42,5.457c-0.003,4.009,0.002,8.02,0.002,12.028C554.604,496.604,554.604,497.437,554.604,498.405z"
				/>
			<rect x="466.221" y="468.071" fill-rule="evenodd" clip-rule="evenodd" fill="#057068" width="10.643" height="30.457"/>
			<path fill-rule="evenodd" clip-rule="evenodd" fill="#057068" d="M351.952,458.441c0.033,2.803-2.42,5.275-5.19,5.232
				c-2.787-0.042-5.194-2.49-5.187-5.271c0.006-2.808,2.193-5.116,4.911-5.184C349.471,453.144,351.916,455.481,351.952,458.441z"/>
			<path fill-rule="evenodd" clip-rule="evenodd" fill="#057068" d="M477.17,458.578c-0.049,2.911-2.344,5.144-5.236,5.096
				c-2.752-0.045-5.021-2.518-4.955-5.398c0.07-2.98,2.313-5.158,5.213-5.064C475.027,453.303,477.22,455.666,477.17,458.578z"/>
			<path fill-rule="evenodd" clip-rule="evenodd" fill="#057068" d="M367.396,487.196c-0.08,2.686,0.741,3.672,3.33,3.8
				c2.042,0.104,4.099,0.072,6.14-0.04c1.954-0.11,3.896-0.4,5.958-0.625c0,2.273,0,4.541,0,7.119
				c-2.288,0.382-4.522,0.952-6.783,1.083c-3.573,0.206-7.164,0.213-10.744,0.135c-4.025-0.09-6.645-2.006-7.698-5.889
				c-1.705-6.281-1.722-12.642-0.063-18.95c0.818-3.112,3.039-5.001,6.127-5.478c4.73-0.729,9.512-0.799,14.234,0.189
				c2.781,0.581,4.534,2.402,5.012,5.172c0.375,2.167,0.604,4.403,0.521,6.596c-0.156,4.107-2.54,6.389-6.662,6.587
				c-2.555,0.121-5.117,0.056-7.675,0.104C368.519,487.008,367.948,487.129,367.396,487.196z M367.14,480.376
				c1.277,0,2.191,0.036,3.1-0.007c1.915-0.09,2.663-0.983,2.519-2.951c-0.128-1.729-1.07-2.475-2.914-2.302
				c-1.418,0.133-2.163,0.689-2.474,2.106C367.18,478.101,367.228,479.033,367.14,480.376z"/>
			<path fill-rule="evenodd" clip-rule="evenodd" fill="#057068" d="M309.882,514.019c0-15.456,0-30.541,0-45.947
				c2.823-0.088,5.606-0.076,8.386-0.007c0.409,0.012,0.883,0.418,1.189,0.766c0.492,0.56,0.869,1.22,1.101,1.557
				c2.225-0.928,4.166-2.115,6.259-2.531c4.378-0.871,8.474,0.838,10.063,5.693c0.343,1.047,0.587,2.141,0.739,3.229
				c0.71,5.096,0.805,10.209-0.327,15.242c-0.916,4.069-3.273,6.872-8.555,6.771c-2.316-0.045-4.596-0.15-6.765-1.071
				c-0.366-0.157-0.785-0.184-1.404-0.323c0,4.403,0,8.636,0,13.042C316.999,511.636,313.551,512.79,309.882,514.019z
				 M320.561,484.065c-0.001,0-0.003,0-0.004,0c0,1.617-0.041,3.231,0.022,4.845c0.021,0.548,0.138,1.309,0.503,1.583
				c1.233,0.925,2.751,0.862,4.167,0.595c1.136-0.213,1.608-1.246,1.647-2.319c0.112-3.12,0.16-6.243,0.187-9.367
				c0.004-0.492-0.179-1.009-0.367-1.476c-0.568-1.408-1.59-1.868-3.328-1.561c-2.129,0.375-2.753,0.907-2.813,2.603
				C320.515,480.666,320.561,482.368,320.561,484.065z"/>
			<path fill-rule="evenodd" clip-rule="evenodd" fill="#057068" d="M481.068,514.019c0-15.456,0-30.541,0-45.947
				c2.821-0.088,5.605-0.076,8.385-0.007c0.409,0.012,0.883,0.418,1.188,0.766c0.493,0.56,0.869,1.22,1.101,1.557
				c2.225-0.928,4.166-2.115,6.26-2.531c4.377-0.871,8.475,0.838,10.063,5.693c0.343,1.047,0.586,2.141,0.739,3.229
				c0.711,5.096,0.805,10.209-0.328,15.242c-0.916,4.069-3.273,6.872-8.556,6.771c-2.315-0.045-4.595-0.15-6.765-1.071
				c-0.365-0.157-0.785-0.184-1.402-0.323c0,4.403,0,8.636,0,13.042C488.184,511.636,484.736,512.79,481.068,514.019z
				 M491.746,484.065c-0.002,0-0.003,0-0.004,0c0,1.617-0.042,3.231,0.021,4.845c0.021,0.548,0.138,1.309,0.504,1.583
				c1.232,0.925,2.751,0.862,4.167,0.595c1.136-0.213,1.608-1.246,1.646-2.319c0.113-3.12,0.16-6.243,0.188-9.367
				c0.004-0.492-0.178-1.009-0.367-1.476c-0.568-1.408-1.59-1.868-3.328-1.561c-2.129,0.375-2.753,0.907-2.813,2.603
				C491.7,480.666,491.746,482.368,491.746,484.065z"/>
			<rect x="342.042" y="468.071" fill-rule="evenodd" clip-rule="evenodd" fill="#057068" width="10.643" height="30.457"/>
		</g>
	</g>
</g>
</svg>
