<?xml version="1.0" encoding="utf-8"?>
<svg version="1.1" xmlns="http://www.w3.org/2000/svg" xmlns:xlink="http://www.w3.org/1999/xlink"
	 width="200" height="80" viewBox="295 160 185 155">
<g>
	<path fill-rule="evenodd" clip-rule="evenodd" fill="#2E9E48" d="M300.564,237.511c1.959-0.121,3.815-0.29,5.673-0.343
		c6.663-0.186,13.274-0.854,19.82-2.11c3.493-0.672,6.961-1.475,10.452-2.162c1.032-0.202,1.556-0.754,1.987-1.693
		c6.661-14.534,15.102-27.942,25.667-39.959c6.199-7.053,13.109-13.328,21.179-18.232c5.843-3.549,12.072-6.121,18.818-7.339
		c6.889-1.243,13.717-1.028,20.423,1.118c7.932,2.539,13.602,7.75,17.511,14.989c0.879,1.629,1.659,3.312,2.572,5.144
		c0.295-0.426,0.527-0.723,0.719-1.044c2.565-4.317,5.222-8.585,7.658-12.976c1.98-3.57,3.674-7.299,5.534-10.936
		c7.383-14.438,15.937-28.158,25.593-41.175c6.967-9.393,15.045-17.722,24.641-24.497c5.318-3.756,10.986-6.866,17.063-9.219
		c0.199-0.077,0.42-0.099,0.817-0.188c-3.674,2.843-7.209,5.508-10.665,8.272c-4.895,3.913-9.446,8.192-13.468,13.017
		c-5.845,7.01-9.62,14.978-11.306,23.964c-0.816,4.354-1.743,8.692-2.811,12.991c-1.286,5.184-3.566,9.879-7.521,13.615
		c-2.524,2.385-5.43,4.234-8.43,5.946c-2.13,1.216-4.235,2.478-6.4,3.628c-3.97,2.109-6.993,5.226-9.608,8.803
		c-3.424,4.686-6.241,9.73-8.688,14.98c-0.533,1.143-1.148,1.479-2.37,1.447c-3.214-0.086-6.448-0.225-9.64,0.055
		c-4.877,0.426-9.758,0.989-14.575,1.841c-12.617,2.228-24.267,7.169-35.368,13.39c-7.181,4.023-14.148,8.426-21.223,12.638
		c-2.81,1.673-5.654,3.288-8.479,4.935c-0.292,0.172-0.566,0.375-0.751,0.809c0.347-0.077,0.705-0.119,1.039-0.234
		c7.803-2.674,15.26-6.15,22.674-9.734c7.311-3.535,14.77-6.717,22.527-9.148c6.078-1.907,12.268-3.351,18.558-4.35
		c5.824-0.926,11.663-1.695,17.573-1.805c2.975-0.055,5.956-0.297,8.927-0.199c7.65,0.254,15.252,1.012,22.728,2.758
		c0.455,0.105,0.915,0.199,1.355,0.348c1.489,0.5,2.123,1.712,1.504,3.151c-0.576,1.337-1.287,2.622-2.015,3.886
		c-4.341,7.539-8.71,15.064-13.056,22.602c-0.963,1.668-1.848,3.381-2.803,5.055c-0.52,0.91-1.059,1.819-1.684,2.66
		c-1.223,1.641-2.803,2.299-4.898,1.85c-5.594-1.202-11.262-2.001-16.963-2.387c-5.182-0.354-10.384-0.473-15.581-0.147
		c-6.175,0.39-12.374,0.552-18.521,1.21c-6.777,0.729-13.514,1.871-20.258,2.903c-6.227,0.951-12.433,2.038-18.661,2.978
		c-4.15,0.627-8.314,1.193-12.488,1.623c-5.292,0.545-10.597,0.564-15.919,0.22c-3.273-0.21-6.529-0.412-9.71-1.209
		c-5.765-1.451-11.219-3.626-15.996-7.259c-0.832-0.631-1.597-1.372-2.305-2.143C300.871,239.252,300.359,238.573,300.564,237.511z"
		/>
	<g>
		<g>
			<path fill-rule="evenodd" clip-rule="evenodd" fill="#057068" d="M366.789,274.326c0-3.665,0-7.198,0-10.809
				c2.486,0,7.339,0,7.339,0v30.924c0,0-3.903,0.022-5.812-0.026c-0.271-0.008-0.585-0.316-0.788-0.564
				c-0.325-0.396-0.573-0.856-0.884-1.334c-0.367,0.245-0.676,0.411-0.937,0.634c-1.81,1.536-3.942,1.653-6.129,1.313
				c-1.812-0.279-3.133-1.371-3.733-3.078c-0.477-1.358-0.84-2.808-0.933-4.238c-0.149-2.326-0.075-4.669-0.015-7
				c0.025-0.926,0.194-1.861,0.424-2.76c0.685-2.668,2.218-3.92,4.97-4.119c1.823-0.128,3.606,0.092,5.333,0.721
				C365.938,274.104,366.268,274.179,366.789,274.326z M366.792,283.614c-0.001,0-0.004,0-0.005,0c0-1.165-0.025-2.334,0.008-3.498
				c0.024-0.836-0.313-1.252-1.143-1.465c-2.253-0.584-3.245-0.006-3.41,2.315c-0.128,1.797-0.123,3.618,0,5.416
				c0.137,2.002,1.177,2.67,3.094,2.211c1.088-0.262,1.421-0.655,1.45-1.831C366.813,285.712,366.792,284.663,366.792,283.614z"/>
			<path fill-rule="evenodd" clip-rule="evenodd" fill="#057068" d="M387.152,305.056c0-10.582,0-20.908,0-31.455
				c1.932-0.059,3.838-0.051,5.74-0.004c0.279,0.008,0.604,0.286,0.813,0.523c0.337,0.384,0.595,0.835,0.753,1.066
				c1.523-0.636,2.853-1.449,4.285-1.732c2.996-0.597,5.801,0.573,6.889,3.897c0.234,0.716,0.402,1.464,0.506,2.21
				c0.486,3.487,0.552,6.988-0.224,10.434c-0.627,2.785-2.241,4.705-5.856,4.635c-1.586-0.031-3.146-0.104-4.631-0.732
				c-0.251-0.108-0.537-0.127-0.961-0.222c0,3.014,0,5.912,0,8.929C392.023,303.425,389.664,304.213,387.152,305.056z
				 M394.463,284.55c-0.002,0-0.003,0-0.004,0c0,1.106-0.028,2.213,0.016,3.316c0.015,0.375,0.094,0.896,0.344,1.084
				c0.845,0.634,1.884,0.59,2.853,0.407c0.778-0.146,1.102-0.854,1.128-1.588c0.076-2.136,0.109-4.274,0.127-6.411
				c0.004-0.338-0.122-0.692-0.251-1.012c-0.389-0.963-1.089-1.278-2.278-1.068c-1.457,0.257-1.885,0.622-1.926,1.781
				C394.43,282.222,394.463,283.388,394.463,284.55z"/>
			<path fill-rule="evenodd" clip-rule="evenodd" fill="#057068" d="M448.686,286.694c-0.054,1.838,0.508,2.512,2.28,2.6
				c1.397,0.071,2.805,0.05,4.202-0.027c1.338-0.076,2.668-0.273,4.078-0.428c0,1.556,0,3.109,0,4.873
				c-1.566,0.263-3.096,0.652-4.643,0.74c-2.445,0.143-4.904,0.146-7.354,0.093c-2.757-0.061-4.549-1.372-5.271-4.03
				c-1.166-4.299-1.178-8.654-0.043-12.973c0.561-2.13,2.08-3.422,4.195-3.748c3.238-0.501,6.511-0.548,9.742,0.128
				c1.904,0.399,3.104,1.646,3.432,3.542c0.256,1.482,0.412,3.014,0.356,4.514c-0.107,2.812-1.738,4.375-4.562,4.51
				c-1.748,0.083-3.502,0.038-5.254,0.07C449.455,286.563,449.063,286.646,448.686,286.694z M448.512,282.024
				c0.873,0,1.499,0.025,2.121-0.004c1.311-0.063,1.822-0.674,1.725-2.021c-0.088-1.184-0.733-1.693-1.995-1.575
				c-0.97,0.091-1.48,0.473-1.692,1.442C448.537,280.466,448.572,281.104,448.512,282.024z"/>
			<path fill-rule="evenodd" clip-rule="evenodd" fill="#057068" d="M469.577,294.365c-2.463,0-4.776,0-7.087,0
				c-0.311-1.303-0.418-17.454-0.131-20.687c2.062,0,4.136,0,6.382,0c0.279,0.682,0.601,1.467,1.022,2.498
				c1.572-2.26,3.531-3.311,6.256-2.627c0,2.301,0,4.553,0,7.039c-0.918,0-1.827-0.02-2.734,0.003
				c-3.062,0.069-3.707,0.722-3.709,3.735c-0.004,2.744,0,5.49,0.001,8.233C469.577,293.132,469.577,293.702,469.577,294.365z"/>
			<rect x="409.075" y="273.601" fill-rule="evenodd" clip-rule="evenodd" fill="#057068" width="7.286" height="20.85"/>
			<path fill-rule="evenodd" clip-rule="evenodd" fill="#057068" d="M330.854,267.01c0.022,1.917-1.656,3.61-3.553,3.582
				c-1.907-0.029-3.556-1.704-3.55-3.609c0.005-1.921,1.501-3.501,3.362-3.548C329.155,263.383,330.829,264.983,330.854,267.01z"/>
			<path fill-rule="evenodd" clip-rule="evenodd" fill="#057068" d="M416.57,267.104c-0.033,1.991-1.604,3.519-3.584,3.487
				c-1.885-0.032-3.438-1.724-3.393-3.696c0.048-2.039,1.583-3.531,3.568-3.467C415.104,263.493,416.604,265.11,416.57,267.104z"/>
			<path fill-rule="evenodd" clip-rule="evenodd" fill="#057068" d="M341.426,286.694c-0.055,1.838,0.507,2.512,2.279,2.6
				c1.398,0.071,2.806,0.05,4.203-0.027c1.338-0.076,2.667-0.273,4.078-0.428c0,1.556,0,3.109,0,4.873
				c-1.566,0.263-3.096,0.652-4.644,0.74c-2.445,0.143-4.904,0.146-7.354,0.093c-2.755-0.061-4.548-1.372-5.27-4.03
				c-1.167-4.299-1.179-8.654-0.043-12.973c0.56-2.13,2.08-3.422,4.195-3.748c3.238-0.501,6.511-0.548,9.743,0.128
				c1.904,0.399,3.104,1.646,3.432,3.542c0.256,1.482,0.412,3.014,0.356,4.514c-0.107,2.812-1.739,4.375-4.562,4.51
				c-1.748,0.083-3.502,0.038-5.253,0.07C342.194,286.563,341.804,286.646,341.426,286.694z M341.251,282.024
				c0.874,0,1.5,0.025,2.122-0.004c1.311-0.063,1.823-0.674,1.724-2.021c-0.087-1.184-0.732-1.693-1.995-1.575
				c-0.97,0.091-1.48,0.473-1.693,1.442C341.277,280.466,341.311,281.104,341.251,282.024z"/>
			<path fill-rule="evenodd" clip-rule="evenodd" fill="#057068" d="M302.056,305.056c0-10.582,0-20.908,0-31.455
				c1.932-0.059,3.837-0.051,5.74-0.004c0.28,0.008,0.604,0.286,0.813,0.523c0.337,0.384,0.595,0.835,0.753,1.066
				c1.524-0.636,2.852-1.449,4.285-1.732c2.996-0.597,5.801,0.573,6.889,3.897c0.234,0.716,0.401,1.464,0.505,2.21
				c0.487,3.487,0.551,6.988-0.224,10.434c-0.627,2.785-2.24,4.705-5.856,4.635c-1.585-0.031-3.146-0.104-4.631-0.732
				c-0.251-0.108-0.537-0.127-0.96-0.222c0,3.014,0,5.912,0,8.929C306.927,303.425,304.567,304.213,302.056,305.056z
				 M309.366,284.55c-0.001,0-0.002,0-0.003,0c0,1.106-0.028,2.213,0.015,3.316c0.015,0.375,0.094,0.896,0.345,1.084
				c0.844,0.634,1.883,0.59,2.852,0.407c0.778-0.146,1.101-0.854,1.127-1.588c0.078-2.136,0.11-4.274,0.128-6.411
				c0.003-0.338-0.123-0.692-0.251-1.012c-0.389-0.963-1.088-1.278-2.278-1.068c-1.457,0.257-1.884,0.622-1.925,1.781
				C309.334,282.222,309.366,283.388,309.366,284.55z"/>
			<path fill-rule="evenodd" clip-rule="evenodd" fill="#057068" d="M419.238,305.056c0-10.582,0-20.908,0-31.455
				c1.932-0.059,3.838-0.051,5.74-0.004c0.279,0.008,0.605,0.286,0.814,0.523c0.336,0.384,0.594,0.835,0.753,1.066
				c1.522-0.636,2.853-1.449,4.284-1.732c2.997-0.597,5.801,0.573,6.89,3.897c0.233,0.716,0.401,1.464,0.505,2.21
				c0.486,3.487,0.552,6.988-0.224,10.434c-0.628,2.785-2.241,4.705-5.856,4.635c-1.585-0.031-3.146-0.104-4.631-0.732
				c-0.25-0.108-0.538-0.127-0.961-0.222c0,3.014,0,5.912,0,8.929C424.109,303.425,421.75,304.213,419.238,305.056z M426.548,284.55
				c-0.001,0-0.002,0-0.003,0c0,1.106-0.027,2.213,0.016,3.316c0.014,0.375,0.094,0.896,0.345,1.084
				c0.845,0.634,1.884,0.59,2.853,0.407c0.777-0.146,1.102-0.854,1.127-1.588c0.077-2.136,0.109-4.274,0.127-6.411
				c0.004-0.338-0.121-0.692-0.25-1.012c-0.389-0.963-1.089-1.278-2.279-1.068c-1.457,0.257-1.884,0.622-1.925,1.781
				C426.517,282.222,426.548,283.388,426.548,284.55z"/>
			<rect x="324.071" y="273.601" fill-rule="evenodd" clip-rule="evenodd" fill="#057068" width="7.285" height="20.85"/>
		</g>
	</g>
</g>
</svg>
